<?xml version="1.0" encoding="UTF-8"?>
<svg width="16px" height="23px" viewBox="0 0 16 23" version="1.1" xmlns="http://www.w3.org/2000/svg" xmlns:xlink="http://www.w3.org/1999/xlink">
    <!-- Generator: sketchtool 63.1 (101010) - https://sketch.com -->
    <title>7E19078A-9436-4C5E-A3D9-B63380350D45@1.00x</title>
    <desc>Created with sketchtool.</desc>
    <g id="Developer---Concept-Mockup" stroke="none" stroke-width="1" fill="none" fill-rule="evenodd">
        <g id="XL---ESC-Frontend-Developer-Task" transform="translate(-1256.000000, -65.000000)" fill="#FFFFFF" fill-rule="nonzero">
            <g id="Hero-section" transform="translate(0.000000, -1.000000)">
                <g id="Navigation" transform="translate(683.000000, 66.000000)">
                    <g id="Basket-Icon" transform="translate(573.000000, 0.000000)">
                        <path d="M12.6329817,5.6771557 L12.6329817,4.90171639 C12.6329817,2.19942787 10.5541366,0 8,0 C5.44586341,0 3.36701832,2.19942787 3.36701832,4.90171639 L3.36701832,5.6771557 L0,5.6771557 L0,19.907642 C0,21.6136085 1.31038312,23 2.92282066,23 L13.0771793,23 C14.6896169,23 16,21.6136085 16,19.907642 L16,5.6771557 L12.6329817,5.6771557 Z M4.50860633,9.28647323 C3.96668517,9.28647323 3.52692948,8.82120964 3.52692948,8.24785452 C3.52692948,7.67449939 3.96668517,7.2092358 4.50860633,7.2092358 C5.05052748,7.2092358 5.49028318,7.67449939 5.49028318,8.24785452 C5.49028318,8.82590928 5.05052748,9.28647323 4.50860633,9.28647323 Z M10.4963909,5.6771557 L5.50360911,5.6771557 L5.50360911,4.90171639 C5.50360911,3.4448304 6.62298723,2.26052309 8,2.26052309 C9.37701277,2.26052309 10.4963909,3.4448304 10.4963909,4.90171639 L10.4963909,5.6771557 Z M11.4913937,9.28647323 C10.9494725,9.28647323 10.5097168,8.82120964 10.5097168,8.24785452 C10.5097168,7.67449939 10.9494725,7.2092358 11.4913937,7.2092358 C12.0333148,7.2092358 12.4730705,7.67449939 12.4730705,8.24785452 C12.4686285,8.82590928 12.0333148,9.28647323 11.4913937,9.28647323 Z" id="Shape"></path>
                    </g>
                </g>
            </g>
        </g>
    </g>
</svg>