<?xml version="1.0" encoding="UTF-8"?>
<svg width="35px" height="18px" viewBox="0 0 35 18" version="1.1" xmlns="http://www.w3.org/2000/svg" xmlns:xlink="http://www.w3.org/1999/xlink">
    <!-- Generator: sketchtool 63.1 (101010) - https://sketch.com -->
    <title>23F92820-7DE6-4FAA-A3C2-BDBB1B45D4C5@1.00x</title>
    <desc>Created with sketchtool.</desc>
    <g id="Developer---Concept-Mockup" stroke="none" stroke-width="1" fill="none" fill-rule="evenodd">
        <g id="XL---ESC-Frontend-Developer-Task" transform="translate(-1345.000000, -71.000000)" fill="#FFFFFF" fill-rule="nonzero">
            <g id="Hero-section" transform="translate(0.000000, -1.000000)">
                <g id="Navigation" transform="translate(683.000000, 66.000000)">
                    <g id="Hamburger-Icon" transform="translate(662.000000, 6.000000)">
                        <path d="M1.08270004,2.18727009 L33.5645113,2.18727009 C34.1622014,2.18727009 34.6472114,1.70217007 34.6472114,1.10457004 C34.6472114,0.50688002 34.1621114,0.0218700009 33.5645113,0.0218700009 L1.08270004,0.0218700009 C0.485010019,0.0218700009 0,0.50697002 0,1.10457004 C0,1.70217007 0.485100019,2.18727009 1.08270004,2.18727009 Z" id="Path"></path>
                        <path d="M33.5645113,7.6009503 L1.08270004,7.6009503 C0.485010019,7.6009503 0,8.08605032 0,8.68365035 C0,9.28125037 0.485100019,9.76635039 1.08270004,9.76635039 L33.5645113,9.76635039 C34.1622014,9.76635039 34.6472114,9.28125037 34.6472114,8.68365035 C34.6472114,8.08605032 34.1622014,7.6009503 33.5645113,7.6009503 Z" id="Path"></path>
                        <path d="M33.5645113,15.1800306 L11.9099705,15.1800306 C11.3122804,15.1800306 10.8272704,15.6651306 10.8272704,16.2627306 C10.8272704,16.8604207 11.3123704,17.3454307 11.9099705,17.3454307 L33.5645113,17.3454307 C34.1622014,17.3454307 34.6472114,16.8603307 34.6472114,16.2627306 C34.6472114,15.6650406 34.1622014,15.1800306 33.5645113,15.1800306 Z" id="Path"></path>
                    </g>
                </g>
            </g>
        </g>
    </g>
</svg>