<?xml version="1.0" encoding="UTF-8"?>
<svg width="20px" height="19px" viewBox="0 0 20 19" version="1.1" xmlns="http://www.w3.org/2000/svg" xmlns:xlink="http://www.w3.org/1999/xlink">
    <!-- Generator: sketchtool 63.1 (101010) - https://sketch.com -->
    <title>B491AC6B-2762-437F-9298-3FB312A5CA56@1.00x</title>
    <desc>Created with sketchtool.</desc>
    <g id="Developer---Concept-Mockup" stroke="none" stroke-width="1" fill="none" fill-rule="evenodd">
        <g id="XL---ESC-Frontend-Developer-Task" transform="translate(-77.000000, -374.000000)" fill="#ff323d" fill-rule="nonzero">
            <g id="Hero-section" transform="translate(0.000000, -1.000000)">
                <g id="Social" transform="translate(75.000000, 375.000000)">
                    <g id="Instagram" transform="translate(2.117647, 0.000000)">
                        <path d="M13.1029412,0 L5.95588235,0 C2.66704412,0 0,2.65285771 0,5.92420213 L0,13.0332447 C0,16.3045891 2.66704412,18.9574468 5.95588235,18.9574468 L13.1029412,18.9574468 C16.3917794,18.9574468 19.0588235,16.3045891 19.0588235,13.0332447 L19.0588235,5.92420213 C19.0588235,2.65285771 16.3917794,0 13.1029412,0 Z M17.2720588,13.0332447 C17.2720588,15.3199867 15.4019118,17.1801862 13.1029412,17.1801862 L5.95588235,17.1801862 C3.65691176,17.1801862 1.78676471,15.3199867 1.78676471,13.0332447 L1.78676471,5.92420213 C1.78676471,3.63746011 3.65691176,1.77726064 5.95588235,1.77726064 L13.1029412,1.77726064 C15.4019118,1.77726064 17.2720588,3.63746011 17.2720588,5.92420213 L17.2720588,13.0332447 Z" id="Shape"></path>
                        <path d="M9.52941176,4.7393617 C6.89810294,4.7393617 4.76470588,6.8614109 4.76470588,9.4787234 C4.76470588,12.0960359 6.89810294,14.2180851 9.52941176,14.2180851 C12.1607206,14.2180851 14.2941176,12.0960359 14.2941176,9.4787234 C14.2941176,6.8614109 12.1607206,4.7393617 9.52941176,4.7393617 Z M9.52941176,12.4408245 C7.88797059,12.4408245 6.55147059,11.1114335 6.55147059,9.4787234 C6.55147059,7.84482846 7.88797059,6.51662234 9.52941176,6.51662234 C11.1708529,6.51662234 12.5073529,7.84482846 12.5073529,9.4787234 C12.5073529,11.1114335 11.1708529,12.4408245 9.52941176,12.4408245 Z" id="Shape"></path>
                        <ellipse id="Oval" cx="14.6514706" cy="4.38390957" rx="1" ry="1"></ellipse>
                    </g>
                </g>
            </g>
        </g>
    </g>
</svg>