<?xml version="1.0" encoding="UTF-8"?>
<svg width="26px" height="26px" viewBox="0 0 26 26" version="1.1" xmlns="http://www.w3.org/2000/svg" xmlns:xlink="http://www.w3.org/1999/xlink">
    <!-- Generator: sketchtool 63.1 (101010) - https://sketch.com -->
    <title>0B3F5BDE-0279-4121-BFAD-A134C0CC33EE@1.00x</title>
    <desc>Created with sketchtool.</desc>
    <g id="Developer---Concept-Mockup" stroke="none" stroke-width="1" fill="none" fill-rule="evenodd">
        <g id="XL---ESC-Frontend-Developer-Task" transform="translate(-1156.000000, -66.000000)" fill="#FFFFFF" fill-rule="nonzero">
            <g id="Hero-section" transform="translate(0.000000, -1.000000)">
                <g id="Navigation" transform="translate(683.000000, 66.000000)">
                    <g id="Search-Icon" transform="translate(473.000000, 1.000000)">
                        <path d="M25.6000004,22.0628909 L20.4150394,16.8781253 C21.4736331,15.1839846 22.0865238,13.1839846 22.0865238,11.0433596 C22.0865238,4.95410162 17.1326175,0 11.0433596,0 C4.95410162,0 0,4.95410162 0,11.0433596 C0,17.1326175 4.95410162,22.0867191 11.0433596,22.0867191 C13.1839846,22.0867191 15.1837893,21.4738284 16.87793,20.4152347 L22.0628909,25.6000004 L25.6000004,22.0628909 Z M11.0433596,2.24980473 C15.8919924,2.24980473 19.8369143,6.19453134 19.8369143,11.0433596 C19.8369143,15.8921877 15.8919924,19.8369143 11.0433596,19.8369143 C6.19453134,19.8369143 2.24980473,15.8921877 2.24980473,11.0433596 C2.24980473,6.19453134 6.19453134,2.24980473 11.0433596,2.24980473 Z" id="Shape"></path>
                    </g>
                </g>
            </g>
        </g>
    </g>
</svg>