<?xml version="1.0" encoding="UTF-8"?>
<svg width="22px" height="19px" viewBox="0 0 22 19" version="1.1" xmlns="http://www.w3.org/2000/svg" xmlns:xlink="http://www.w3.org/1999/xlink">
    <!-- Generator: sketchtool 63.1 (101010) - https://sketch.com -->
    <title>BBA3E832-4BE1-4229-A1E8-467D5CF67F99@1.00x</title>
    <desc>Created with sketchtool.</desc>
    <g id="Developer---Concept-Mockup" stroke="none" stroke-width="1" fill="none" fill-rule="evenodd">
        <g id="XL---ESC-Frontend-Developer-Task" transform="translate(-75.000000, -414.000000)" fill="#ff323d" fill-rule="nonzero">
            <g id="Hero-section" transform="translate(0.000000, -1.000000)">
                <g id="Social" transform="translate(75.000000, 375.000000)">
                    <path d="M20.6602625,54.2329765 C18.0876801,53.8112724 16.9155625,51.2233033 16.7903644,50.9295422 C16.787972,50.9237915 16.7781236,50.9031287 16.7754123,50.8970607 C16.6464662,50.6364553 16.6144889,50.4249489 16.6818327,50.2689267 C16.8169191,49.9511317 17.3892022,49.7710756 17.755626,49.6557049 C17.858735,49.6225492 17.9553449,49.5920904 18.032258,49.5616315 C18.7733193,49.2705673 19.1452056,48.8986365 19.1373508,48.4553178 C19.1302137,48.1036928 18.8529039,47.7808213 18.4422221,47.6363005 C18.3006764,47.5774055 18.132257,47.545281 17.9682634,47.545281 C17.8549472,47.545281 17.6865278,47.5611846 17.5256043,47.6359833 C17.2118913,47.7818525 16.9329068,47.8603792 16.721944,47.8695009 C16.6280454,47.8657729 16.5569137,47.8502262 16.5055585,47.8329345 C16.5120178,47.7222833 16.5195137,47.6085386 16.5266508,47.492454 L16.5303988,47.4332417 C16.6178381,46.0527985 16.7263698,44.3348889 16.2643328,43.3053965 C14.8979189,40.2581654 11.998067,40.0212766 11.141656,40.0212766 L10.7422182,40.0250046 C9.88752162,40.0250046 6.99309239,40.2615761 5.62803405,43.3071018 C5.16496046,44.3389739 5.27452876,46.0561696 5.36232694,47.4362955 C5.37081968,47.5720118 5.37935229,47.7043173 5.38680836,47.8332914 C5.32827624,47.8532404 5.24390705,47.8708494 5.12923514,47.8708494 C4.88358365,47.8708494 4.5892883,47.7916485 4.25480196,47.6359833 C3.7713139,47.4105959 2.88739118,47.7117734 2.76793462,48.3358621 C2.70294323,48.673606 2.83974412,49.16063 3.85975003,49.5616712 C3.93901559,49.5928042 4.03873551,49.6246115 4.16122234,49.6632006 C4.50316475,49.7711549 5.07544779,49.9515283 5.21085315,50.2686491 C5.27787801,50.4253455 5.24590066,50.6368519 5.10471385,50.9235139 C5.05435549,51.0402727 3.84276455,53.7839467 1.16675421,54.222189 C0.889125366,54.2675203 0.691081064,54.512579 0.706750766,54.7914279 C0.71117656,54.8689234 0.729198711,54.9467759 0.762531716,55.0253025 C0.987449757,55.548536 1.84382091,55.9116623 3.45588638,56.1661601 C3.49125286,56.2571796 3.53244065,56.4440176 3.55592527,56.5523289 C3.5899361,56.7070026 3.62566142,56.8667131 3.67434515,57.032214 C3.72334786,57.1997376 3.86896046,57.4806488 4.29016844,57.4806488 C4.43271089,57.4806488 4.59774117,57.4484846 4.77704562,57.4139805 C5.03493782,57.3635727 5.38744631,57.295199 5.82464296,57.295199 C6.06722431,57.295199 6.31969391,57.3168533 6.57523366,57.3588135 C7.05736607,57.4383317 7.48028855,57.7358208 7.9709137,58.0807036 C8.69323514,58.5887076 9.34992724,58.9772163 10.6632317,58.9772163 C10.6979203,58.9772163 10.73229,58.9761852 10.7659819,58.9738452 C10.8146257,58.9762248 10.8636284,58.9772163 10.913309,58.9772163 C12.0636565,58.9772163 13.0762063,58.6750077 13.9234069,58.0797121 C14.3915841,57.7500984 14.8338844,57.4387283 15.3163358,57.3588532 C15.5725534,57.316893 15.825342,57.2952387 16.0679233,57.2952387 C16.4870978,57.2952387 16.8215443,57.3487003 17.1199464,57.406921 C17.3216988,57.4465016 17.479592,57.4654591 17.6252046,57.4654591 C17.919181,57.4654591 18.1355664,57.3047174 18.218261,57.024163 C18.265908,56.8610418 18.3016334,56.7060507 18.336322,56.547649 C18.354703,56.4633716 18.3989211,56.2616612 18.4363609,56.1645341 C20.0253006,55.9130901 20.8367759,55.564162 21.0613351,55.042277 C21.0950269,54.9671611 21.1147636,54.8876033 21.1201862,54.8030086 C21.1352578,54.5240407 20.9378913,54.2790216 20.6602625,54.2329765 Z" id="Snapchat"></path>
                </g>
            </g>
        </g>
    </g>
</svg>