<?xml version="1.0" encoding="UTF-8"?>
<svg width="256px" height="662px" viewBox="0 0 256 662" version="1.1" xmlns="http://www.w3.org/2000/svg" xmlns:xlink="http://www.w3.org/1999/xlink">
    <!-- Generator: sketchtool 63.1 (101010) - https://sketch.com -->
    <title>CD518971-13C8-46DC-8EC1-42C22F3FDDD3@1.00x</title>
    <desc>Created with sketchtool.</desc>
    <defs>
        <path d="M194.634066,547 C206.300791,547 216.772909,549.840478 226.050733,555.521519 C235.328557,561.20256 242.578484,569.055646 247.800733,579.081013 C253.022981,589.106379 255.634066,600.412595 255.634066,613 C255.634066,625.587405 253.022981,636.893621 247.800733,646.918987 C242.578484,656.944354 235.328557,664.79744 226.050733,670.478481 C216.772909,676.159522 206.300791,679 194.634066,679 C182.967341,679 172.495224,676.159522 163.217399,670.478481 C153.939575,664.79744 146.689648,656.944354 141.467399,646.918987 C136.245151,636.893621 133.634066,625.587405 133.634066,613 C133.634066,600.412595 136.245151,589.106379 141.467399,579.081013 C146.689648,569.055646 153.939575,561.20256 163.217399,555.521519 C172.495224,549.840478 182.967341,547 194.634066,547 Z M33.9987911,557.185661 L33.9987911,592.410119 L123.365934,592.410119 L123.365934,632.961202 L33.9987911,632.961202 L33.9987911,668.185661 L2.36593393,668.185661 L2.36593393,557.185661 L33.9987911,557.185661 Z M195.134066,586.5 C189.278799,586.5 184.169326,587.681517 179.805495,590.044586 C175.441663,592.407655 172.072173,595.586498 169.696923,599.58121 C167.321673,603.575922 166.134066,608.048808 166.134066,613 C166.134066,617.951192 167.321673,622.424078 169.696923,626.41879 C172.072173,630.413502 175.441663,633.592345 179.805495,635.955414 C184.169326,638.318483 189.278799,639.5 195.134066,639.5 C200.989333,639.5 206.098806,638.318483 210.462637,635.955414 C214.826469,633.592345 218.195959,630.413502 220.571209,626.41879 C222.946459,622.424078 224.134066,617.951192 224.134066,613 C224.134066,608.048808 222.946459,603.575922 220.571209,599.58121 C218.195959,595.586498 214.826469,592.407655 210.462637,590.044586 C206.098806,587.681517 200.989333,586.5 195.134066,586.5 Z M123.365934,450.185661 L123.365934,550.185661 L2.36593393,550.185661 L2.36593393,452.419338 L33.1345054,452.419338 L33.1345054,510.323118 L47.3087911,510.323118 L47.3087911,459.464011 L76.6945054,459.464011 L76.6945054,510.323118 L92.5973625,510.323118 L92.5973625,450.185661 L123.365934,450.185661 Z M253,421.185661 L253,453.518994 L199.848571,497.852327 L253,497.852327 L253,536.185661 L136,536.185661 L136,503.852327 L189.151429,459.518994 L136,459.518994 L136,421.185661 L253,421.185661 Z M86.4205787,335.185661 C94.0544967,335.185661 100.965402,337.335666 107.153502,341.63574 C113.341602,345.935814 118.257309,352.356775 121.90077,360.898814 C125.544231,369.440854 127.365934,379.813175 127.365934,392.016089 C127.365934,402.127074 126.238213,411.976421 123.982737,421.564425 C121.727261,431.152428 118.69109,439.026095 114.874131,445.185661 L85.0326006,431.936849 C88.3868979,426.125938 91.0760786,419.617815 93.1002236,412.412285 C95.1243685,405.206755 96.1364257,398.291874 96.1364257,391.667436 C96.1364257,385.972743 95.5870232,381.905166 94.4882017,379.464583 C93.3893802,377.024 91.7411726,375.803727 89.5435296,375.803727 C86.9988902,375.803727 85.0904394,377.401704 83.8181197,380.597705 C82.5458001,383.793706 81.1578358,389.052502 79.6541853,396.37425 C77.6878731,405.787926 75.5770108,413.632539 73.321535,419.908323 C71.0660593,426.184107 67.3648212,431.646282 62.2177099,436.295011 C57.0705985,440.94374 50.1018613,443.26807 41.3112891,443.26807 C33.6773712,443.26807 26.7375499,441.118065 20.491617,436.81799 C14.2456841,432.517916 9.32997736,426.096955 5.74434923,417.554916 C2.15872111,409.012876 0.365933934,398.640555 0.365933934,386.437642 C0.365933934,378.069929 1.26232752,369.847613 3.05514158,361.770447 C4.84795565,353.69328 7.47930456,346.575021 10.9492673,340.415455 L40.6173001,352.792634 C34.602698,364.763111 31.5954421,376.094218 31.5954421,386.786295 C31.5954421,397.362153 34.1400433,402.650003 39.2293219,402.650003 C41.6582958,402.650003 43.4799989,401.08108 44.6944858,397.943188 C45.9089728,394.805296 47.2101893,389.633663 48.5981744,382.428133 C50.3331557,373.130675 52.3283544,365.286062 54.5838301,358.89406 C56.8393059,352.502058 60.511628,346.952721 65.6009066,342.245883 C70.6901852,337.539044 77.6300066,335.185661 86.4205787,335.185661 Z M253,366.185661 L253,405.185661 L136,405.185661 L136,366.185661 L253,366.185661 Z M253.134066,221.5 L253.134066,262.552133 L232.742637,270.459716 L232.742637,315.21327 L253.134066,323.120853 L253.134066,363.5 L136.134066,312.016588 L136.134066,272.983412 L253.134066,221.5 Z M33.9987911,227.185661 L33.9987911,262.092781 L123.365934,262.092781 L123.365934,302.27854 L33.9987911,302.27854 L33.9987911,337.185661 L2.36593393,337.185661 L2.36593393,227.185661 L33.9987911,227.185661 Z M203.634066,281 L174.634066,292.5 L203.634066,304 L203.634066,281 Z M123.365934,178.185661 L123.365934,219.185661 L2.36593393,219.185661 L2.36593393,178.185661 L123.365934,178.185661 Z M253,126.185661 L253,218.185661 L136,218.185661 L136,178.852327 L222.412857,178.852327 L222.412857,126.185661 L253,126.185661 Z M123.365934,17.1856607 L123.365934,54.2987559 L68.2245054,54.643994 L112.475934,80.8820892 L112.475934,98.8344702 L70.1259339,125.072565 L123.365934,125.072565 L123.365934,162.185661 L2.36593393,162.185661 L2.36593393,128.697565 L66.8416482,89.3404226 L2.36593393,51.018994 L2.36593393,17.5308988 L123.365934,17.1856607 Z M216.666667,21.1856607 C224.000037,21.1856607 230.638859,23.2379381 236.583333,27.3425545 C242.527807,31.4471709 247.249982,37.5762697 250.75,45.7300347 C254.250017,53.8837997 256,63.7846515 256,75.4328873 C256,85.0842826 254.916677,94.4859319 252.75,103.638117 C250.583323,112.790302 247.666685,120.306075 244,126.185661 L215.333333,113.539068 C218.555572,107.992289 221.138879,101.77999 223.083333,94.901984 C225.027787,88.0239781 226,81.4234102 226,75.1000822 C226,69.6642389 225.472227,65.7815519 224.416667,63.4519047 C223.361106,61.1222576 221.777788,59.9574515 219.666667,59.9574515 C217.22221,59.9574515 215.388895,61.4827928 214.166667,64.5335212 C212.944438,67.5842496 211.611118,72.6040092 210.166667,79.5929507 C208.277768,88.5787325 206.250011,96.0667718 204.083333,102.057293 C201.916656,108.047814 198.361136,113.261708 193.416667,117.699131 C188.472197,122.136554 181.77782,124.355233 173.333333,124.355233 C165.999963,124.355233 159.333363,122.302955 153.333333,118.198339 C147.333303,114.093723 142.611128,107.964624 139.166667,99.8108588 C135.722205,91.6570937 134,81.7562419 134,70.1080061 C134,62.1206445 134.861102,54.2720701 136.583333,46.5620473 C138.305564,38.8520246 140.833317,32.0573224 144.166667,26.1777367 L172.666667,37.9923168 C166.88886,49.4186813 164,60.234738 164,70.4408112 C164,80.5359489 166.44442,85.583442 171.333333,85.583442 C173.666678,85.583442 175.416661,84.0858341 176.583333,81.0905735 C177.750006,78.0953129 179,73.1587537 180.333333,66.2807478 C182,57.4059015 183.916656,49.9178623 186.083333,43.8164055 C188.250011,37.7149487 191.777753,32.4178543 196.666667,27.9249634 C201.55558,23.4320724 208.22218,21.1856607 216.666667,21.1856607 Z" id="path-1"></path>
    </defs>
    <g id="Developer---Concept-Mockup" stroke="none" stroke-width="1" fill="none" fill-rule="evenodd">
        <g id="XL---ESC-Frontend-Developer-Task" transform="translate(-108.000000, -5258.000000)">
            <g id="Testimonial-Region" transform="translate(108.000000, 5241.000000)">
                <mask id="mask-2" fill="white">
                    <use xlink:href="#path-1"></use>
                </mask>
                <use id="Testimonial-Title" fill="#FF323D" fill-rule="nonzero" xlink:href="#path-1"></use>
            </g>
        </g>
    </g>
</svg>