<?xml version="1.0" encoding="UTF-8"?>
<svg width="104px" height="76px" viewBox="0 0 104 76" version="1.1" xmlns="http://www.w3.org/2000/svg" xmlns:xlink="http://www.w3.org/1999/xlink">
    <!-- Generator: sketchtool 63.1 (101010) - https://sketch.com -->
    <title>F010AD07-A96E-4DCC-A78E-9E2CD074DB70@1.00x</title>
    <desc>Created with sketchtool.</desc>
    <g id="Developer---Concept-Mockup" stroke="none" stroke-width="1" fill="none" fill-rule="evenodd">
        <g id="XL---ESC-Frontend-Developer-Task" transform="translate(-571.000000, -5424.000000)" fill="#FFDF00" fill-rule="nonzero">
            <g id="Testimonial-Region" transform="translate(108.000000, 5241.000000)">
                <path d="M501.820175,217.165138 C507.709094,221.503589 510.653509,227.546343 510.653509,235.293578 C510.653509,242.26609 508.406455,247.960223 503.912281,252.376147 C499.418106,256.792071 493.684245,259 486.710526,259 C480.04675,259 474.429116,256.908278 469.857456,252.724771 C465.285796,248.541263 463,242.808395 463,235.525994 C463,229.48315 465.092084,223.285455 469.276316,216.932722 L491.824561,183 L516,183 L501.820175,217.165138 Z M552.820175,217.165138 C558.709094,221.503589 561.653509,227.546343 561.653509,235.293578 C561.653509,242.26609 559.406455,247.960223 554.912281,252.376147 C550.418106,256.792071 544.684245,259 537.710526,259 C531.04675,259 525.429116,256.908278 520.857456,252.724771 C516.285796,248.541263 514,242.808395 514,235.525994 C514,229.48315 516.092084,223.285455 520.276316,216.932722 L542.824561,183 L567,183 L552.820175,217.165138 Z" id="“"></path>
            </g>
        </g>
    </g>
</svg>