<?xml version="1.0" encoding="UTF-8"?>
<svg width="24px" height="19px" viewBox="0 0 24 19" version="1.1" xmlns="http://www.w3.org/2000/svg" xmlns:xlink="http://www.w3.org/1999/xlink">
    <!-- Generator: sketchtool 63.1 (101010) - https://sketch.com -->
    <title>B0E5F901-8B3F-451A-8704-43EF1B56C07F@1.00x</title>
    <desc>Created with sketchtool.</desc>
    <g id="Developer---Concept-Mockup" stroke="none" stroke-width="1" fill="none" fill-rule="evenodd">
        <g id="XL---ESC-Frontend-Developer-Task" transform="translate(-75.000000, -454.000000)" fill="#FFFFFF" fill-rule="nonzero">
            <g id="Hero-section" transform="translate(0.000000, -1.000000)">
                <g id="Social" transform="translate(75.000000, 375.000000)">
                    <path d="M23.4570136,82.2868232 C22.5847059,82.6674304 21.6552217,82.9197103 20.6861538,83.0422046 C21.6830769,82.4501489 22.4439638,81.5197758 22.8016833,80.3983699 C21.8721991,80.9495941 20.8459548,81.3389509 19.7522715,81.5562324 C18.8697014,80.6214845 17.611819,80.0425532 16.2395837,80.0425532 C13.5772127,80.0425532 11.4338281,82.192036 11.4338281,84.8271211 C11.4338281,85.20627 11.4660814,85.5708363 11.5452489,85.9179034 C7.54729412,85.7239542 4.00968326,83.8180016 1.63319457,80.9145957 C1.21829864,81.6306039 0.974932127,82.4501489 0.974932127,83.3323993 C0.974932127,84.9889885 1.83257919,86.4574615 3.11098643,87.3076301 C2.33837104,87.2930475 1.58041629,87.0699329 0.938280543,86.718491 C0.938280543,86.7330736 0.938280543,86.7520311 0.938280543,86.7709885 C0.938280543,89.0954632 2.60519457,91.0262062 4.79109502,91.4709771 C4.39965611,91.5774304 3.97303167,91.6284697 3.53028054,91.6284697 C3.22240724,91.6284697 2.91160181,91.6109705 2.6198552,91.5468069 C3.24293213,93.4410933 5.01100452,94.8337365 7.11333937,94.8789427 C5.47721267,96.1520082 3.3998009,96.9190556 1.15085973,96.9190556 C0.756488688,96.9190556 0.378244344,96.9015565 -3.55271368e-15,96.8534337 C2.13019005,98.2198282 4.65475113,99 7.37723077,99 C16.2263891,99 21.0643982,91.7086743 21.0643982,85.3885532 C21.0643982,85.1771047 21.0570679,84.9729476 21.0468054,84.7702488 C22.0012127,84.0965303 22.8031493,83.2551113 23.4570136,82.2868232 Z" id="Twitter"></path>
                </g>
            </g>
        </g>
    </g>
</svg>